<svg width="19" height="19" viewBox="0 0 19 19" fill="none" xmlns="http://www.w3.org/2000/svg">
<g id="photo-camera 1">
<g id="Group">
<g id="Group_2">
<path id="Vector" d="M16.7283 4.54192H14.7457L13.6511 2.88974C13.238 2.27018 12.5152 1.89844 11.7717 1.89844H7.22826C6.48478 1.89844 5.76196 2.27018 5.34891 2.88974L4.25435 4.54192H2.27174C1.01196 4.54192 0 5.55387 0 6.81365V14.8267C0 16.0865 1.01196 17.0984 2.27174 17.0984H16.7283C17.988 17.0984 19 16.0865 19 14.8267V6.81365C19 5.55387 17.988 4.54192 16.7283 4.54192ZM9.5 15.2397C6.67065 15.2397 4.37826 12.9474 4.37826 10.118C4.37826 7.28866 6.67065 5.01692 9.5 5.01692C12.3293 5.01692 14.6217 7.30931 14.6217 10.1387C14.6217 12.9474 12.3293 15.2397 9.5 15.2397ZM16.4391 7.743C16.4185 7.743 16.3978 7.743 16.3565 7.743H15.5304C15.1587 7.72235 14.8696 7.41257 14.8902 7.04083C14.9109 6.68974 15.1793 6.42126 15.5304 6.40061H16.3565C16.7283 6.37996 17.038 6.66909 17.0587 7.04083C17.0793 7.41257 16.8109 7.72235 16.4391 7.743Z" fill="#A475AF"/>
</g>
</g>
<g id="Group_3">
<g id="Group_4">
<path id="Vector_2" d="M9.49844 7.28906C7.92887 7.28906 6.64844 8.5695 6.64844 10.1391C6.64844 11.7086 7.92887 12.9684 9.49844 12.9684C11.068 12.9684 12.3484 11.688 12.3484 10.1184C12.3484 8.54885 11.068 7.28906 9.49844 7.28906Z" fill="#A475AF"/>
</g>
</g>
</g>
</svg>
