<svg width="207" height="22" viewBox="0 0 207 22" fill="none" xmlns="http://www.w3.org/2000/svg">
<g clip-path="url(#clip0_59_7)">
<path d="M41.0732 15.7876L39.8578 11.4385L38.6423 15.7876H36.5703L34.3906 8.30469H36.5248L37.7714 13.1094L38.8313 8.30469H40.8866L42.0853 13.1094L43.2529 8.30469H45.3393L43.1428 15.7876H41.0708H41.0732Z" fill="#1E1E24"/>
<path d="M47.1882 12.5659C47.2504 13.6923 47.9036 14.4215 48.9013 14.4215C49.5545 14.4215 50.1311 14.1013 50.2723 13.5848H52.3587C51.8921 15.1202 50.6312 15.9872 48.9947 15.9872C46.4417 15.9872 45.1641 14.6178 45.1641 11.9116C45.1641 9.60035 46.5183 8.10938 48.8702 8.10938C51.2222 8.10938 52.4663 9.60035 52.4663 12.5659H47.1882ZM50.38 11.318C50.3489 10.208 49.6024 9.67513 48.808 9.67513C48.0137 9.67513 47.3294 10.2827 47.2504 11.318H50.38Z" fill="#1E1E24"/>
<path d="M53.1719 15.7898V5.57031H55.1649V9.28138C55.7416 8.49149 56.488 8.11057 57.4379 8.11057C59.4166 8.11057 60.5842 9.70671 60.5842 11.9735C60.5842 14.4974 59.1989 15.9884 57.268 15.9884C56.3349 15.9884 55.6171 15.6379 55.1338 14.8784L55.1171 15.7898H53.1719ZM58.529 12.1091C58.529 10.5737 57.9691 9.79785 56.7847 9.79785C55.6626 9.79785 55.0884 10.6041 55.0884 12.2306C55.0884 13.4926 55.8349 14.3759 56.8015 14.3759C57.7681 14.3759 58.529 13.4482 58.529 12.1091Z" fill="#1E1E24"/>
<path d="M65.0859 19.3337V8.30801H67.0311L67.0479 9.21942C67.5312 8.45992 68.2466 8.10938 69.1821 8.10938C71.1129 8.10938 72.4983 9.60035 72.4983 12.1242C72.4983 14.3911 71.3307 15.9872 69.352 15.9872C68.4021 15.9872 67.6556 15.6063 67.079 14.8164V19.3337H65.0859ZM70.443 11.9887C70.443 10.6496 69.7276 9.72187 68.7155 9.72187C67.7035 9.72187 67.0024 10.6029 67.0024 11.8672C67.0024 13.4937 67.5791 14.2999 68.6988 14.2999C69.8831 14.2999 70.443 13.5241 70.443 11.9887Z" fill="#1E1E24"/>
<path d="M78.0216 15.7886C77.9594 15.6063 77.9116 15.3469 77.8972 15.1202C77.4139 15.6367 76.6052 15.9872 75.5764 15.9872C73.8321 15.9872 73.0234 15.1506 73.0234 13.933C73.0234 11.7737 74.5021 11.5307 76.543 11.2572C77.5551 11.1194 77.835 10.9231 77.835 10.4066C77.835 9.92051 77.3373 9.63073 76.543 9.63073C75.6242 9.63073 75.251 10.0724 75.1577 10.7408H73.2747C73.3058 9.18904 74.1767 8.10938 76.6387 8.10938C79.1007 8.10938 79.9094 9.17502 79.9094 11.0609V15.7909H78.0264L78.0216 15.7886ZM77.8805 12.1242C77.6771 12.3229 77.3206 12.428 76.5717 12.5659C75.4184 12.7786 75.0452 13.0988 75.0452 13.7367C75.0452 14.2999 75.3873 14.5734 76.0262 14.5734C77.0694 14.5734 77.847 13.8279 77.8637 12.9469L77.8781 12.1266L77.8805 12.1242Z" fill="#1E1E24"/>
<path d="M86.1389 14.7837C85.8589 15.4521 85.0335 15.8493 84.0358 15.8493C81.5139 15.8493 80.6406 13.9634 80.6406 12.0027C80.6406 9.67513 82.136 8.10938 83.9879 8.10938C84.9521 8.10938 85.6532 8.47394 86.1365 9.23578V8.30801H88.1606V15.8657C88.1606 18.1162 86.4786 19.3337 84.3468 19.3337C82.215 19.3337 80.6406 18.1325 80.6406 16.1999H82.5236C82.5236 17.0973 83.1936 17.6301 84.2056 17.6301C85.2799 17.6301 86.1365 17.0061 86.1365 16.0176V14.786L86.1389 14.7837ZM86.2011 12.2294C86.2011 10.6029 85.6245 9.82703 84.4736 9.82703C83.3228 9.82703 82.7461 10.5725 82.7461 12.1079C82.7461 13.447 83.4783 14.2976 84.4736 14.2976C85.4689 14.2976 86.2011 13.4914 86.2011 12.2294Z" fill="#1E1E24"/>
<path d="M90.8992 12.5659C90.9614 13.6923 91.6146 14.4215 92.6123 14.4215C93.2655 14.4215 93.8421 14.1013 93.9832 13.5848H96.0696C95.603 15.1202 94.3421 15.9872 92.7056 15.9872C90.1527 15.9872 88.875 14.6178 88.875 11.9116C88.875 9.60035 90.2292 8.10938 92.5812 8.10938C94.9331 8.10938 96.1773 9.60035 96.1773 12.5659H90.8992ZM94.0909 11.318C94.0598 10.208 93.3133 9.67513 92.519 9.67513C91.7246 9.67513 91.0403 10.2827 90.9614 11.318H94.0909Z" fill="#1E1E24"/>
<path d="M104.975 10.8671H106.861V12.9961C106.861 14.5782 105.925 15.9921 103.762 15.9921C101.599 15.9921 100.633 14.5922 100.633 12.9797V6.28906H102.626V8.31286H106.861V9.71269H102.626V12.7858C102.626 13.7299 102.968 14.2767 103.793 14.2767C104.619 14.2767 104.978 13.7439 104.978 12.8162V10.8695L104.975 10.8671Z" fill="#1E1E24"/>
<path d="M107.516 12.0495C107.516 9.67747 109.025 8.10938 111.454 8.10938C113.882 8.10938 115.347 9.66111 115.347 12.0495C115.347 14.4378 113.837 15.9896 111.454 15.9896C109.071 15.9896 107.516 14.3771 107.516 12.0495ZM113.308 12.0495C113.308 10.5281 112.686 9.78263 111.456 9.78263C110.226 9.78263 109.602 10.5281 109.602 12.0495C109.602 13.5708 110.224 14.3303 111.456 14.3303C112.688 14.3303 113.308 13.5708 113.308 12.0495Z" fill="#1E1E24"/>
<path d="M119.831 19.3337V8.30801H121.776L121.79 9.21942C122.273 8.45992 122.989 8.10938 123.924 8.10938C125.855 8.10938 127.24 9.60035 127.24 12.1242C127.24 14.3911 126.073 15.9872 124.094 15.9872C123.144 15.9872 122.398 15.6063 121.821 14.8164V19.3337H119.828H119.831ZM125.188 11.9887C125.188 10.6496 124.472 9.72187 123.46 9.72187C122.448 9.72187 121.747 10.6029 121.747 11.8672C121.747 13.4937 122.324 14.2999 123.443 14.2999C124.628 14.2999 125.188 13.5241 125.188 11.9887Z" fill="#1E1E24"/>
<path d="M133.287 15.7898L133.271 14.8784C132.787 15.6379 132.072 15.9884 131.136 15.9884C129.206 15.9884 127.82 14.4974 127.82 11.9735C127.82 9.70671 128.988 8.11057 130.967 8.11057C131.916 8.11057 132.663 8.49149 133.24 9.28138V5.57031H135.233V15.7898H133.287ZM133.319 12.2306C133.319 10.6041 132.742 9.79785 131.622 9.79785C130.438 9.79785 129.878 10.5737 129.878 12.1091C129.878 13.4482 130.593 14.3759 131.605 14.3759C132.618 14.3759 133.319 13.4949 133.319 12.2306Z" fill="#1E1E24"/>
<path d="M136.918 15.7898V9.70671H135.781V8.30687H136.918C136.918 6.48172 137.992 5.57031 140.172 5.57031V7.16645C139.145 7.16645 138.911 7.43987 138.911 8.30687H140.22V9.70671H138.911V15.7898H136.918Z" fill="#1E1E24"/>
<path d="M151.367 13.0824C151.149 14.8164 149.702 15.9872 147.848 15.9872C145.761 15.9872 144.328 14.6341 144.328 11.956C144.328 9.27785 145.761 8.10938 147.91 8.10938C149.903 8.10938 151.257 9.21942 151.382 10.9838H149.341C149.231 10.208 148.656 9.75225 147.893 9.75225C147.037 9.75225 146.336 10.2851 146.336 11.9116C146.336 13.5381 147.037 14.3303 147.831 14.3303C148.625 14.3303 149.247 13.8886 149.326 13.0824H151.365H151.367Z" fill="#1E1E24"/>
<path d="M151.789 12.0495C151.789 9.67747 153.299 8.10938 155.727 8.10938C158.156 8.10938 159.62 9.66111 159.62 12.0495C159.62 14.4378 158.11 15.9896 155.727 15.9896C153.344 15.9896 151.789 14.3771 151.789 12.0495ZM157.582 12.0495C157.582 10.5281 156.96 9.78263 155.73 9.78263C154.5 9.78263 153.875 10.5281 153.875 12.0495C153.875 13.5708 154.498 14.3303 155.73 14.3303C156.962 14.3303 157.582 13.5708 157.582 12.0495Z" fill="#1E1E24"/>
<path d="M165.256 15.7886V11.2572C165.256 10.1005 164.914 9.78263 163.948 9.78263C162.888 9.78263 162.376 10.3599 162.376 11.5003V15.7886H160.352V8.30568H162.282V9.40171C162.749 8.56508 163.529 8.10938 164.759 8.10938C166.223 8.10938 167.297 8.97638 167.297 10.6029V15.7886H165.256Z" fill="#1E1E24"/>
<path d="M169.958 15.7876L167.219 8.30469H169.477L171.08 13.2473L172.7 8.30469H174.834L172.078 15.7876H169.961H169.958Z" fill="#1E1E24"/>
<path d="M176.704 12.5659C176.766 13.6923 177.419 14.4215 178.417 14.4215C179.07 14.4215 179.647 14.1013 179.788 13.5848H181.874C181.408 15.1202 180.147 15.9872 178.51 15.9872C175.957 15.9872 174.68 14.6178 174.68 11.9116C174.68 9.60035 176.034 8.10938 178.386 8.10938C180.738 8.10938 181.982 9.60035 181.982 12.5659H176.704ZM179.896 11.318C179.864 10.208 179.118 9.67513 178.324 9.67513C177.529 9.67513 176.845 10.2827 176.766 11.318H179.896Z" fill="#1E1E24"/>
<path d="M182.68 15.7909V8.30801H184.579V9.2054C185.249 8.20285 186.027 8.10938 186.852 8.10938H187.118V10.1332C186.931 10.1028 186.745 10.0888 186.558 10.0888C185.312 10.0888 184.706 10.6964 184.706 11.8976V15.7909H182.682H182.68Z" fill="#1E1E24"/>
<path d="M192.022 10.8671H193.908V12.9961C193.908 14.5782 192.972 15.9921 190.809 15.9921C188.646 15.9921 187.68 14.5922 187.68 12.9797V6.28906H189.673V8.31286H193.908V9.71269H189.673V12.7858C189.673 13.7299 190.015 14.2767 190.84 14.2767C191.666 14.2767 192.025 13.7439 192.025 12.8162V10.8695L192.022 10.8671Z" fill="#1E1E24"/>
<path d="M196.587 12.5659C196.649 13.6923 197.302 14.4215 198.3 14.4215C198.953 14.4215 199.53 14.1013 199.671 13.5848H201.757C201.291 15.1202 200.03 15.9872 198.393 15.9872C195.84 15.9872 194.562 14.6178 194.562 11.9116C194.562 9.60035 195.917 8.10938 198.269 8.10938C200.621 8.10938 201.865 9.60035 201.865 12.5659H196.587ZM199.778 11.318C199.747 10.208 199.001 9.67513 198.206 9.67513C197.412 9.67513 196.728 10.2827 196.649 11.318H199.778Z" fill="#1E1E24"/>
<path d="M202.562 15.7909V8.30801H204.462V9.2054C205.132 8.20285 205.91 8.10938 206.735 8.10938H207.001V10.1332C206.814 10.1028 206.628 10.0888 206.441 10.0888C205.194 10.0888 204.589 10.6964 204.589 11.8976V15.7909H202.565H202.562Z" fill="#1E1E24"/>
<path d="M26.8203 4.52344V20.5479C26.8203 21.1228 26.3442 21.5878 25.7556 21.5878H1.4944C0.905819 21.5878 0.429688 21.1228 0.429688 20.5479V4.52344H26.8203Z" fill="#FFFCEB"/>
<path d="M26.8203 1.454V4.52007H0.429688V1.454C0.429688 0.879115 0.905819 0.414062 1.4944 0.414062H25.758C26.3466 0.414062 26.8227 0.879115 26.8227 1.454H26.8203Z" fill="#A475AF"/>
<path d="M26.8165 4.93796C26.582 4.93796 26.3906 4.75101 26.3906 4.52199V1.45592C26.3906 1.11239 26.1035 0.831952 25.7518 0.831952H1.4906C1.13889 0.831952 0.851773 1.11239 0.851773 1.45592V4.52199C0.851773 4.75101 0.660363 4.93796 0.425887 4.93796C0.19141 4.93796 0 4.75101 0 4.52199V1.45592C0 0.652008 0.667541 0 1.4906 0H25.7542C26.5748 0 27.2448 0.652008 27.2448 1.45592V4.52199C27.2448 4.75101 27.0534 4.93796 26.8189 4.93796H26.8165Z" fill="black"/>
<path d="M25.7518 22.0034H1.4906C0.669934 22.0034 0 21.3514 0 20.5474V4.52535C0 4.29633 0.19141 4.10938 0.425887 4.10938H26.8165C27.051 4.10938 27.2424 4.29633 27.2424 4.52535V20.5498C27.2424 21.3514 26.5748 22.0057 25.7518 22.0057V22.0034ZM0.851773 4.94133V20.5498C0.851773 20.8933 1.13889 21.1737 1.4906 21.1737H25.7542C26.1059 21.1737 26.393 20.8933 26.393 20.5498V4.94133H0.851773Z" fill="black"/>
<path d="M3.74469 3.07772C3.40254 3.07772 3.125 2.80664 3.125 2.47246C3.125 2.13827 3.40254 1.86719 3.74469 1.86719C4.08683 1.86719 4.36438 2.13827 4.36438 2.47246C4.36438 2.80664 4.08683 3.07772 3.74469 3.07772Z" fill="black"/>
<path d="M6.19 3.07772C5.84786 3.07772 5.57031 2.80664 5.57031 2.47246C5.57031 2.13827 5.84786 1.86719 6.19 1.86719C6.53215 1.86719 6.80969 2.13827 6.80969 2.47246C6.80969 2.80664 6.53215 3.07772 6.19 3.07772Z" fill="black"/>
<path d="M8.64313 3.07772C8.30098 3.07772 8.02344 2.80664 8.02344 2.47246C8.02344 2.13827 8.30098 1.86719 8.64313 1.86719C8.98527 1.86719 9.26282 2.13827 9.26282 2.47246C9.26282 2.80664 8.98527 3.07772 8.64313 3.07772Z" fill="black"/>
<path d="M11.7378 14.2266C11.6564 14.2266 11.599 14.2336 11.5703 14.2429V14.7594C11.6038 14.7664 11.6469 14.7687 11.7067 14.7687C11.922 14.7687 12.0536 14.6636 12.0536 14.4836C12.0536 14.3224 11.9388 14.2266 11.7378 14.2266ZM13.3026 14.2312C13.214 14.2312 13.1542 14.2382 13.1207 14.2476V15.3904C13.1542 15.3974 13.2117 15.3974 13.2619 15.3974C13.628 15.3997 13.8672 15.2034 13.8672 14.7851C13.8696 14.4205 13.6519 14.2289 13.305 14.2289L13.3026 14.2312Z" fill="#BC9EC1"/>
<path d="M14.3041 8.67188H10.7175C10.4807 8.67188 10.251 8.76302 10.0835 8.92894C9.91602 9.09252 9.82031 9.31687 9.82031 9.54823V16.5567C9.82031 16.7881 9.91363 17.0124 10.0835 17.176C10.251 17.3396 10.4807 17.4331 10.7175 17.4331H16.0985C16.3354 17.4331 16.5651 17.3419 16.7326 17.176C16.9001 17.0101 16.9958 16.7881 16.9958 16.5567V11.3009L14.3041 8.67188ZM12.2847 14.8881C12.1459 15.0143 11.9426 15.0728 11.7033 15.0728C11.6578 15.0728 11.61 15.0728 11.5645 15.0658V15.6897H11.1626V13.9651C11.3444 13.9393 11.5263 13.9277 11.7081 13.93C11.9569 13.93 12.1364 13.9767 12.256 14.0702C12.3708 14.159 12.4474 14.3039 12.4474 14.4745C12.4474 14.6451 12.3876 14.7923 12.2823 14.8905L12.2847 14.8881ZM13.993 15.4817C13.804 15.6336 13.5193 15.7084 13.1676 15.7084C12.957 15.7084 12.8087 15.6944 12.7082 15.6827V13.9674C12.89 13.9417 13.0719 13.93 13.2537 13.93C13.5935 13.93 13.8136 13.9884 13.9859 14.117C14.1725 14.2525 14.2897 14.4675 14.2897 14.776C14.2897 15.1102 14.1653 15.3415 13.993 15.4841V15.4817ZM15.6511 14.2665H14.9644V14.6661H15.6057V14.9886H14.9644V15.6921H14.5577V13.944H15.6511V14.2689V14.2665ZM14.3065 11.7403H13.8591V9.55057L16.1009 11.7403H14.3065Z" fill="#A475AF"/>
</g>
<defs>
<clipPath id="clip0_59_7">
<rect width="207" height="22" fill="white"/>
</clipPath>
</defs>
</svg>
