<svg width="12" height="12" viewBox="0 0 12 12" fill="none" xmlns="http://www.w3.org/2000/svg">
<path d="M11.7385 5.20976C11.8534 5.09761 11.9346 4.95557 11.973 4.7997C12.0114 4.64382 12.0055 4.48032 11.9559 4.32764C11.9062 4.17496 11.8149 4.03919 11.6922 3.93566C11.5695 3.83213 11.4203 3.76497 11.2615 3.74176L8.3555 3.31976C8.29454 3.31087 8.23665 3.28729 8.18683 3.25106C8.137 3.21482 8.09674 3.16701 8.0695 3.11176L6.7695 0.478758C6.69827 0.335004 6.5883 0.214008 6.45199 0.129416C6.31567 0.0448236 6.15843 0 5.998 0C5.83757 0 5.68033 0.0448236 5.54401 0.129416C5.40769 0.214008 5.29772 0.335004 5.2265 0.478758L3.9265 3.11176C3.89926 3.16701 3.85899 3.21482 3.80917 3.25106C3.75935 3.28729 3.70146 3.31087 3.6405 3.31976L0.736498 3.74176C0.577649 3.76497 0.428453 3.83213 0.305757 3.93566C0.183062 4.03919 0.0917536 4.17496 0.0421433 4.32764C-0.00746698 4.48032 -0.0134035 4.64382 0.025004 4.7997C0.0634116 4.95557 0.144633 5.09761 0.259498 5.20976L2.3595 7.25876C2.40369 7.30166 2.43679 7.35465 2.45595 7.41319C2.47512 7.47172 2.47976 7.53403 2.4695 7.59476L1.9695 10.4888C1.9468 10.6121 1.9519 10.7389 1.98443 10.86C2.01695 10.9811 2.07608 11.0934 2.1575 11.1888C2.28482 11.3382 2.45895 11.4402 2.65158 11.4781C2.84421 11.5161 3.04401 11.4877 3.2185 11.3978L5.8185 10.0318C5.8733 10.0038 5.93396 9.98916 5.9955 9.98916C6.05704 9.98916 6.1177 10.0038 6.1725 10.0318L8.7725 11.3978C8.89563 11.4633 9.03299 11.4977 9.1725 11.4978C9.29839 11.4975 9.4227 11.4697 9.53671 11.4163C9.65073 11.363 9.75168 11.2853 9.8325 11.1888C9.91398 11.0934 9.97315 10.9811 10.0057 10.86C10.0382 10.7389 10.0433 10.6121 10.0205 10.4888L9.5205 7.59476C9.51023 7.53403 9.51488 7.47172 9.53404 7.41319C9.5532 7.35465 9.58631 7.30166 9.6305 7.25876L11.7385 5.20976Z" fill="#A475AF"/>
</svg>
